<svg width="82" height="22" viewBox="0 0 82 22" fill="none" xmlns="http://www.w3.org/2000/svg">
<path d="M12.18 11.796V21H7.344V11.874L0.48 1.5H5.862L9.762 7.714L13.662 1.5H18.992L12.18 11.796ZM32.0066 8V21H27.3266V19.96C26.46 20.8267 25.3073 21.26 23.8686 21.26C22.7073 21.26 21.6413 20.9653 20.6706 20.376C19.7173 19.7693 18.9546 18.9547 18.3826 17.932C17.828 16.892 17.5506 15.748 17.5506 14.5C17.5506 13.252 17.828 12.1167 18.3826 11.094C18.9546 10.054 19.7173 9.23933 20.6706 8.65C21.6413 8.04333 22.7073 7.74 23.8686 7.74C25.3073 7.74 26.46 8.17333 27.3266 9.04V8H32.0066ZM24.9086 17.178C25.654 17.178 26.2866 16.918 26.8066 16.398C27.3266 15.878 27.5866 15.2453 27.5866 14.5C27.5866 13.7547 27.3266 13.122 26.8066 12.602C26.2866 12.082 25.654 11.822 24.9086 11.822C24.1633 11.822 23.5306 12.082 23.0106 12.602C22.4906 13.1047 22.2306 13.7373 22.2306 14.5C22.2306 15.2453 22.4906 15.878 23.0106 16.398C23.5306 16.918 24.1633 17.178 24.9086 17.178ZM44.2041 7.74C45.0534 7.74 45.8334 7.96533 46.5441 8.416C47.2547 8.84933 47.8094 9.44733 48.2081 10.21C48.6241 10.9727 48.8321 11.8307 48.8321 12.784V21H44.1521V13.382C44.1521 12.8967 43.9874 12.5153 43.6581 12.238C43.3461 11.9607 42.9301 11.822 42.4101 11.822C41.8034 11.822 41.3007 12.004 40.9021 12.368C40.5207 12.7147 40.3301 13.148 40.3301 13.668V21H35.6501V8H40.3301V9.56C40.8154 8.95333 41.3874 8.50267 42.0461 8.208C42.7221 7.896 43.4414 7.74 44.2041 7.74ZM60.942 21L56.834 15.462V21H52.154V0.2H56.834V12.368L60.994 8H66.532L60.916 13.902L66.974 21H60.942ZM81.7215 8V21H77.0415V19.96C76.1748 20.8267 75.0221 21.26 73.5835 21.26C72.4221 21.26 71.3561 20.9653 70.3855 20.376C69.4321 19.7693 68.6695 18.9547 68.0975 17.932C67.5428 16.892 67.2655 15.748 67.2655 14.5C67.2655 13.252 67.5428 12.1167 68.0975 11.094C68.6695 10.054 69.4321 9.23933 70.3855 8.65C71.3561 8.04333 72.4221 7.74 73.5835 7.74C75.0221 7.74 76.1748 8.17333 77.0415 9.04V8H81.7215ZM74.6235 17.178C75.3688 17.178 76.0015 16.918 76.5215 16.398C77.0415 15.878 77.3015 15.2453 77.3015 14.5C77.3015 13.7547 77.0415 13.122 76.5215 12.602C76.0015 12.082 75.3688 11.822 74.6235 11.822C73.8781 11.822 73.2455 12.082 72.7255 12.602C72.2055 13.1047 71.9455 13.7373 71.9455 14.5C71.9455 15.2453 72.2055 15.878 72.7255 16.398C73.2455 16.918 73.8781 17.178 74.6235 17.178Z" fill="#333333"></path>
</svg>